<?xml version="1.0" encoding="utf-8"?>
<!-- Generator: Adobe Illustrator 23.0.1, SVG Export Plug-In . SVG Version: 6.00 Build 0)  -->
<svg version="1.1" id="Layer_1" xmlns="http://www.w3.org/2000/svg" xmlns:xlink="http://www.w3.org/1999/xlink" x="0px" y="0px"
	 viewBox="0 0 658 151" style="enable-background:new 0 0 658 151;" xml:space="preserve">
<style type="text/css">
	.st0{fill:#233142;}
</style>
<g transform="translate(0.000000,151.000000) scale(0.100000,-0.100000)">
	<path class="st0" d="M650,1499c-246-23-534-87-791-175c-213-73-273-100-266-118c3-8,93-217,199-465l192-450l36,16
		c175,75,461,153,653,178c152,19,414,19,564,0c239-32,413-81,708-200C2443,84,2816,7,3290,7s848,78,1345,278
		c296,120,469,168,708,200c150,19,412,19,564,0c192-25,478-103,653-178l36-16l192,450c106,248,196,456,199,464c6,16-21,30-179,89
		c-228,85-512,156-768,192c-178,26-653,26-830,1c-321-45-577-115-918-251c-315-125-466-169-697-201c-250-35-486-28-739,21
		c-172,34-327,82-521,161c-511,210-916,295-1390,292C835,1508,702,1503,650,1499z"/>
</g>
</svg>
