<?xml version="1.0" encoding="utf-8"?>
<!-- Generator: Adobe Illustrator 23.0.1, SVG Export Plug-In . SVG Version: 6.00 Build 0)  -->
<svg version="1.1" id="Layer_1" xmlns="http://www.w3.org/2000/svg" xmlns:xlink="http://www.w3.org/1999/xlink" x="0px" y="0px"
	 viewBox="0 0 567 150" style="enable-background:new 0 0 567 150;" xml:space="preserve">
<style type="text/css">
	.st0{fill:#233142;}
</style>
<g transform="translate(0.000000,150.000000) scale(0.100000,-0.100000)">
	<path class="st0" d="M891.3,1485c-283-26-540-71-817-141c-202-52-397-111-397-122c0-6,310-944,314-949c1-1,60,16,131,38
		c408,123,793,181,1215,181c471,0,855-65,1375-232c355-113,719-193,1085-236c209-25,729-30,960-10c196,17,374,41,555,76
		c222,43,685,169,685,188c0,6-310,944-314,949c-1,1-60-16-131-38c-408-123-793-181-1215-181c-471,0-855,65-1375,232
		c-354,113-717,192-1085,236C1693.3,1498,1086.3,1504,891.3,1485z"/>
</g>
</svg>
